<?xml version="1.0" encoding="UTF-8" standalone="no"?>
<!-- Generator: Adobe Illustrator 16.0.0, SVG Export Plug-In . SVG Version: 6.00 Build 0)  -->

<svg
   xmlns:dc="http://purl.org/dc/elements/1.1/"
   xmlns:cc="http://creativecommons.org/ns#"
   xmlns:rdf="http://www.w3.org/1999/02/22-rdf-syntax-ns#"
   xmlns:svg="http://www.w3.org/2000/svg"
   xmlns="http://www.w3.org/2000/svg"
   xmlns:sodipodi="http://sodipodi.sourceforge.net/DTD/sodipodi-0.dtd"
   xmlns:inkscape="http://www.inkscape.org/namespaces/inkscape"
   version="1.1"
   id="Capa_1"
   x="0px"
   y="0px"
   width="459.562px"
   height="459.562px"
   viewBox="0 0 459.562 459.562"
   style="enable-background:new 0 0 459.562 459.562;"
   xml:space="preserve"
   inkscape:version="0.91 r13725"
   sodipodi:docname="light-on.svg"><metadata
     id="metadata4175"><rdf:RDF><cc:Work
         rdf:about=""><dc:format>image/svg+xml</dc:format><dc:type
           rdf:resource="http://purl.org/dc/dcmitype/StillImage" /><dc:title></dc:title></cc:Work></rdf:RDF></metadata><defs
     id="defs4173" /><sodipodi:namedview
     pagecolor="#ffffff"
     bordercolor="#666666"
     borderopacity="1"
     objecttolerance="10"
     gridtolerance="10"
     guidetolerance="10"
     inkscape:pageopacity="0"
     inkscape:pageshadow="2"
     inkscape:window-width="1920"
     inkscape:window-height="1137"
     id="namedview4171"
     showgrid="false"
     inkscape:zoom="1.0205369"
     inkscape:cx="469.07886"
     inkscape:cy="135.37787"
     inkscape:window-x="-8"
     inkscape:window-y="32"
     inkscape:window-maximized="1"
     inkscape:current-layer="Capa_1" /><path
     style="fill:#ffff00;fill-rule:evenodd;stroke:#000000;stroke-width:1px;stroke-linecap:butt;stroke-linejoin:miter;stroke-opacity:1;fill-opacity:1"
     d="m 240.42839,20.970733 60.28032,18.707685 51.27292,76.216492 -5.54302,107.39597 -43.65127,60.9732 -27.02221,60.97319 -87.30253,-3.46439 -40.18688,-78.988 L 99.774319,131.83109 133.03243,59.771858 213.40618,24.435119 Z"
     id="path4179"
     inkscape:connector-curvature="0" /><path
     d="m 192.42969,316.13672 c -128.28646,95.61686 -64.14323,47.80843 0,0 z m 0,0 -37.43555,0 c 1.94495,7.44999 3.17369,15.31148 3.42969,23.70703 0.26,8.539 6.35181,15.55206 14.38281,17.28906 -7.475,2.291 -12.91211,9.24275 -12.91211,17.46875 0,7.247 4.23066,13.49036 10.34766,16.44336 -6.116,2.954 -10.34766,9.19536 -10.34766,16.44336 0,10.091 8.18049,18.27149 18.27149,18.27149 l 11.16601,0 c 3.45,19.216 20.24122,33.80078 40.44922,33.80078 20.208,0 37.00022,-14.58478 40.44922,-33.80078 l 11.16601,0 c 10.092,0 18.27149,-8.18149 18.27149,-18.27149 0,-7.248 -4.23161,-13.48936 -10.34961,-16.44336 6.117,-2.953 10.34961,-9.19636 10.34961,-16.44336 0,-8.189 -5.3895,-15.11945 -12.8125,-17.43945 8.025,-1.742 14.113,-8.75306 14.375,-17.28906 0.25595,-8.40684 1.48573,-16.27642 3.43359,-23.73633 l -37.4375,0 c -0.31283,1.61898 -0.60922,3.24948 -0.86914,4.9043 l -73.0625,-0.0215 c -0.25885,-1.64757 -0.55385,-3.27075 -0.86523,-4.88281 z m 74.79687,0 c -178.15104,95.61686 -89.07552,47.80843 0,0 z"
     id="path4139"
     inkscape:connector-curvature="0"
     sodipodi:nodetypes="ccccccscsscscsscsccccccccc" /><path
     d="M 229.78125 0 C 148.21225 0 81.851563 63.046969 81.851562 140.54297 C 81.851562 194.57097 102.7793 225.24964 123.0293 254.93164 C 135.81483 273.66538 148.92372 292.88444 154.99414 316.13672 L 192.42969 316.13672 C 185.87837 282.21942 168.04853 256.07345 153.20312 234.32227 C 134.52312 206.94027 118.39258 183.29397 118.39258 140.54297 C 118.39258 83.195969 168.3593 36.542969 229.7793 36.542969 C 291.1983 36.542969 341.16797 83.195969 341.16797 140.54297 C 341.16897 183.33697 325.05009 206.98748 306.37109 234.39648 C 291.56071 256.12913 273.77404 282.25158 267.22656 316.13672 L 304.66406 316.13672 C 310.72978 292.90632 323.81307 273.69199 336.58398 254.95117 C 356.80498 225.28317 377.71094 194.60692 377.71094 140.54492 C 377.70994 63.047922 311.35125 0 229.78125 0 z "
     id="path4187"
     style="fill:#d4aa00" /><g
     id="g4181"
     style="fill:#ffffff;fill-opacity:1"><path
       id="path4183"
       d="m 247.527,321.036 26.897,-153.13 c 0.015,-0.083 0.028,-0.166 0.042,-0.249 1.43,-9.385 -1.296,-18.896 -7.479,-26.093 -5.983,-6.964 -14.709,-11.121 -23.342,-11.121 -4.852,0 -9.609,1.318 -13.877,3.762 -4.269,-2.444 -9.024,-3.762 -13.877,-3.762 -8.559,0 -16.967,4.064 -23.071,11.15 -6.308,7.324 -9.134,16.813 -7.753,26.035 0.014,0.093 0.029,0.185 0.045,0.277 l 26.897,153.12 z M 229.768,293.268 207.099,164.215 c -0.537,-3.92 1.643,-6.947 2.612,-8.071 1.783,-2.069 4.208,-3.406 6.18,-3.406 2.472,0 4.369,1.851 5.28,2.953 2.118,2.566 5.27,4.051 8.597,4.051 3.326,0 6.479,-1.485 8.597,-4.051 0.912,-1.103 2.809,-2.953 5.281,-2.953 2.189,0 4.653,1.286 6.43,3.354 1.133,1.319 2.936,4.115 2.365,8.103 z"
       inkscape:connector-curvature="0"
       style="fill:#ffffff;fill-opacity:1"
       sodipodi:nodetypes="ccccscsccccccccscscsccc" /></g><g
     id="g4141" /><g
     id="g4143" /><g
     id="g4145" /><g
     id="g4147" /><g
     id="g4149" /><g
     id="g4151" /><g
     id="g4153" /><g
     id="g4155" /><g
     id="g4157" /><g
     id="g4159" /><g
     id="g4161" /><g
     id="g4163" /><g
     id="g4165" /><g
     id="g4167" /><g
     id="g4169" /></svg>